<?xml version="1.0" standalone="no" ?>
<!DOCTYPE svg PUBLIC "-//W3C//DTD SVG 1.1//EN" "http://www.w3.org/Graphics/SVG/1.1/DTD/svg11.dtd">
<svg width="600px" height="769px" xmlns="http://www.w3.org/2000/svg" version="1.1" >
	<circle cx="333" cy="699" r="1" fill="rgb(79,79,79)" />
	<circle cx="464" cy="283" r="1" fill="rgb(26,26,26)" />
	<circle cx="151" cy="338" r="1" fill="rgb(24,24,24)" />
	<circle cx="419" cy="240" r="1" fill="rgb(20,20,20)" />
	<circle cx="508" cy="419" r="1" fill="rgb(38,38,38)" />
	<circle cx="478" cy="394" r="1" fill="rgb(20,20,20)" />
	<circle cx="312" cy="461" r="1" fill="rgb(169,169,169)" />
	<circle cx="491" cy="246" r="1" fill="rgb(19,19,19)" />
	<circle cx="351" cy="86" r="1" fill="rgb(13,13,13)" />
	<circle cx="424" cy="536" r="1" fill="rgb(28,28,28)" />
	<circle cx="351" cy="667" r="1" fill="rgb(85,85,85)" />
	<circle cx="434" cy="514" r="1" fill="rgb(20,20,20)" />
	<circle cx="440" cy="412" r="1" fill="rgb(32,32,32)" />
	<circle cx="365" cy="485" r="1" fill="rgb(25,25,25)" />
	<circle cx="149" cy="237" r="1" fill="rgb(21,21,21)" />
	<circle cx="527" cy="295" r="1" fill="rgb(41,41,41)" />
	<circle cx="302" cy="422" r="1" fill="rgb(35,35,35)" />
	<circle cx="248" cy="98" r="1" fill="rgb(4,4,4)" />
	<circle cx="352" cy="383" r="1" fill="rgb(44,44,44)" />
	<circle cx="109" cy="345" r="1" fill="rgb(12,12,12)" />
	<circle cx="187" cy="239" r="1" fill="rgb(120,120,120)" />
	<circle cx="138" cy="463" r="1" fill="rgb(23,23,23)" />
	<circle cx="374" cy="537" r="1" fill="rgb(35,35,35)" />
	<circle cx="332" cy="334" r="1" fill="rgb(87,87,87)" />
	<circle cx="324" cy="116" r="1" fill="rgb(2,2,2)" />
	<circle cx="425" cy="752" r="1" fill="rgb(134,134,134)" />
	<circle cx="464" cy="113" r="1" fill="rgb(28,28,28)" />
	<circle cx="513" cy="249" r="1" fill="rgb(32,32,32)" />
	<circle cx="287" cy="684" r="1" fill="rgb(82,82,82)" />
	<circle cx="163" cy="221" r="1" fill="rgb(28,28,28)" />
	<circle cx="222" cy="250" r="1" fill="rgb(23,23,23)" />
	<circle cx="482" cy="118" r="1" fill="rgb(35,35,35)" />
	<circle cx="461" cy="385" r="1" fill="rgb(18,18,18)" />
	<circle cx="246" cy="65" r="1" fill="rgb(12,12,12)" />
	<circle cx="403" cy="447" r="1" fill="rgb(40,40,40)" />
	<circle cx="158" cy="258" r="1" fill="rgb(15,15,15)" />
	<circle cx="201" cy="742" r="1" fill="rgb(185,185,185)" />
	<circle cx="203" cy="665" r="1" fill="rgb(118,118,118)" />
	<circle cx="330" cy="752" r="1" fill="rgb(131,131,131)" />
	<circle cx="113" cy="646" r="1" fill="rgb(92,92,92)" />
	<circle cx="468" cy="716" r="1" fill="rgb(116,116,116)" />
	<circle cx="478" cy="373" r="1" fill="rgb(18,18,18)" />
	<circle cx="354" cy="423" r="1" fill="rgb(69,69,69)" />
	<circle cx="417" cy="610" r="1" fill="rgb(56,56,56)" />
	<circle cx="250" cy="650" r="1" fill="rgb(115,115,115)" />
	<circle cx="314" cy="123" r="1" fill="rgb(1,1,1)" />
	<circle cx="495" cy="374" r="1" fill="rgb(33,33,33)" />
	<circle cx="231" cy="468" r="1" fill="rgb(48,48,48)" />
	<circle cx="370" cy="125" r="1" fill="rgb(3,3,3)" />
	<circle cx="306" cy="641" r="1" fill="rgb(66,66,66)" />
	<circle cx="248" cy="602" r="1" fill="rgb(82,82,82)" />
	<circle cx="350" cy="106" r="1" fill="rgb(5,5,5)" />
	<circle cx="317" cy="103" r="1" fill="rgb(5,5,5)" />
	<circle cx="168" cy="133" r="1" fill="rgb(6,6,6)" />
	<circle cx="138" cy="654" r="1" fill="rgb(91,91,91)" />
	<circle cx="217" cy="482" r="1" fill="rgb(40,40,40)" />
	<circle cx="461" cy="135" r="1" fill="rgb(15,15,15)" />
	<circle cx="504" cy="384" r="1" fill="rgb(34,34,34)" />
	<circle cx="549" cy="341" r="1" fill="rgb(50,50,50)" />
	<circle cx="517" cy="371" r="1" fill="rgb(33,33,33)" />
	<circle cx="250" cy="46" r="1" fill="rgb(25,25,25)" />
	<circle cx="364" cy="112" r="1" fill="rgb(3,3,3)" />
	<circle cx="248" cy="545" r="1" fill="rgb(20,20,20)" />
	<circle cx="122" cy="282" r="1" fill="rgb(12,12,12)" />
	<circle cx="11" cy="683" r="1" fill="rgb(131,131,131)" />
	<circle cx="490" cy="223" r="1" fill="rgb(14,14,14)" />
	<circle cx="306" cy="363" r="1" fill="rgb(163,163,163)" />
	<circle cx="413" cy="260" r="1" fill="rgb(29,29,29)" />
	<circle cx="480" cy="457" r="1" fill="rgb(34,34,34)" />
	<circle cx="511" cy="355" r="1" fill="rgb(40,40,40)" />
	<circle cx="476" cy="236" r="1" fill="rgb(35,35,35)" />
	<circle cx="434" cy="165" r="1" fill="rgb(7,7,7)" />
	<circle cx="445" cy="610" r="1" fill="rgb(68,68,68)" />
	<circle cx="422" cy="431" r="1" fill="rgb(39,39,39)" />
	<circle cx="152" cy="217" r="1" fill="rgb(30,30,30)" />
	<circle cx="417" cy="158" r="1" fill="rgb(7,7,7)" />
	<circle cx="337" cy="116" r="1" fill="rgb(4,4,4)" />
	<circle cx="230" cy="115" r="1" fill="rgb(1,1,1)" />
	<circle cx="394" cy="753" r="1" fill="rgb(111,111,111)" />
	<circle cx="355" cy="548" r="1" fill="rgb(28,28,28)" />
	<circle cx="120" cy="334" r="1" fill="rgb(15,15,15)" />
	<circle cx="360" cy="694" r="1" fill="rgb(91,91,91)" />
	<circle cx="452" cy="323" r="1" fill="rgb(25,25,25)" />
	<circle cx="246" cy="228" r="1" fill="rgb(23,23,23)" />
	<circle cx="443" cy="390" r="1" fill="rgb(28,28,28)" />
	<circle cx="226" cy="88" r="1" fill="rgb(6,6,6)" />
	<circle cx="276" cy="709" r="1" fill="rgb(120,120,120)" />
	<circle cx="310" cy="404" r="1" fill="rgb(153,153,153)" />
	<circle cx="183" cy="451" r="1" fill="rgb(36,36,36)" />
	<circle cx="99" cy="335" r="1" fill="rgb(9,9,9)" />
	<circle cx="285" cy="45" r="1" fill="rgb(25,25,25)" />
	<circle cx="328" cy="322" r="1" fill="rgb(39,39,39)" />
	<circle cx="354" cy="232" r="1" fill="rgb(10,10,10)" />
	<circle cx="415" cy="137" r="1" fill="rgb(8,8,8)" />
	<circle cx="316" cy="132" r="1" fill="rgb(2,2,2)" />
	<circle cx="280" cy="132" r="1" fill="rgb(2,2,2)" />
	<circle cx="470" cy="178" r="1" fill="rgb(11,11,11)" />
	<circle cx="127" cy="249" r="1" fill="rgb(231,231,231)" />
	<circle cx="393" cy="404" r="1" fill="rgb(55,55,55)" />
	<circle cx="439" cy="234" r="1" fill="rgb(68,68,68)" />
	<circle cx="385" cy="494" r="1" fill="rgb(22,22,22)" />
	<circle cx="177" cy="114" r="1" fill="rgb(5,5,5)" />
	<circle cx="530" cy="340" r="1" fill="rgb(44,44,44)" />
	<circle cx="431" cy="331" r="1" fill="rgb(67,67,67)" />
	<circle cx="527" cy="191" r="1" fill="rgb(33,33,33)" />
	<circle cx="363" cy="52" r="1" fill="rgb(38,38,38)" />
	<circle cx="142" cy="417" r="1" fill="rgb(29,29,29)" />
	<circle cx="370" cy="599" r="1" fill="rgb(66,66,66)" />
	<circle cx="140" cy="284" r="1" fill="rgb(20,20,20)" />
	<circle cx="168" cy="432" r="1" fill="rgb(31,31,31)" />
	<circle cx="181" cy="391" r="1" fill="rgb(39,39,39)" />
	<circle cx="476" cy="213" r="1" fill="rgb(23,23,23)" />
	<circle cx="264" cy="226" r="1" fill="rgb(22,22,22)" />
	<circle cx="494" cy="398" r="1" fill="rgb(27,27,27)" />
	<circle cx="321" cy="77" r="1" fill="rgb(13,13,13)" />
	<circle cx="405" cy="144" r="1" fill="rgb(2,2,2)" />
	<circle cx="215" cy="120" r="1" fill="rgb(2,2,2)" />
	<circle cx="309" cy="689" r="1" fill="rgb(68,68,68)" />
	<circle cx="219" cy="233" r="1" fill="rgb(94,94,94)" />
	<circle cx="315" cy="525" r="1" fill="rgb(23,23,23)" />
	<circle cx="361" cy="256" r="1" fill="rgb(130,130,130)" />
	<circle cx="418" cy="101" r="1" fill="rgb(19,19,19)" />
	<circle cx="438" cy="86" r="1" fill="rgb(34,34,34)" />
	<circle cx="6" cy="759" r="1" fill="rgb(3,3,3)" />
	<circle cx="405" cy="490" r="1" fill="rgb(24,24,24)" />
	<circle cx="193" cy="433" r="1" fill="rgb(43,43,43)" />
	<circle cx="443" cy="494" r="1" fill="rgb(24,24,24)" />
	<circle cx="345" cy="217" r="1" fill="rgb(197,197,197)" />
	<circle cx="490" cy="189" r="1" fill="rgb(18,18,18)" />
	<circle cx="430" cy="263" r="1" fill="rgb(24,24,24)" />
	<circle cx="267" cy="45" r="1" fill="rgb(31,31,31)" />
	<circle cx="174" cy="469" r="1" fill="rgb(29,29,29)" />
	<circle cx="382" cy="90" r="1" fill="rgb(17,17,17)" />
	<circle cx="254" cy="390" r="1" fill="rgb(132,132,132)" />
	<circle cx="298" cy="536" r="1" fill="rgb(18,18,18)" />
	<circle cx="287" cy="112" r="1" fill="rgb(1,1,1)" />
	<circle cx="231" cy="130" r="1" fill="rgb(2,2,2)" />
	<circle cx="526" cy="482" r="1" fill="rgb(37,37,37)" />
	<circle cx="521" cy="433" r="1" fill="rgb(25,25,25)" />
	<circle cx="395" cy="616" r="1" fill="rgb(52,52,52)" />
	<circle cx="440" cy="433" r="1" fill="rgb(24,24,24)" />
	<circle cx="171" cy="97" r="1" fill="rgb(6,6,6)" />
	<circle cx="110" cy="470" r="1" fill="rgb(22,22,22)" />
	<circle cx="265" cy="64" r="1" fill="rgb(12,12,12)" />
	<circle cx="428" cy="455" r="1" fill="rgb(28,28,28)" />
	<circle cx="146" cy="439" r="1" fill="rgb(26,26,26)" />
	<circle cx="208" cy="87" r="1" fill="rgb(11,11,11)" />
	<circle cx="133" cy="267" r="1" fill="rgb(14,14,14)" />
	<circle cx="444" cy="471" r="1" fill="rgb(22,22,22)" />
	<circle cx="490" cy="475" r="1" fill="rgb(27,27,27)" />
	<circle cx="418" cy="586" r="1" fill="rgb(34,34,34)" />
	<circle cx="462" cy="225" r="1" fill="rgb(33,33,33)" />
	<circle cx="259" cy="683" r="1" fill="rgb(113,113,113)" />
	<circle cx="186" cy="540" r="1" fill="rgb(21,21,21)" />
	<circle cx="511" cy="405" r="1" fill="rgb(34,34,34)" />
	<circle cx="540" cy="401" r="1" fill="rgb(34,34,34)" />
	<circle cx="169" cy="346" r="1" fill="rgb(29,29,29)" />
	<circle cx="296" cy="554" r="1" fill="rgb(22,22,22)" />
	<circle cx="189" cy="496" r="1" fill="rgb(19,19,19)" />
	<circle cx="458" cy="751" r="1" fill="rgb(130,130,130)" />
	<circle cx="281" cy="549" r="1" fill="rgb(19,19,19)" />
	<circle cx="397" cy="670" r="1" fill="rgb(80,80,80)" />
	<circle cx="209" cy="503" r="1" fill="rgb(19,19,19)" />
	<circle cx="374" cy="325" r="1" fill="rgb(184,184,184)" />
	<circle cx="427" cy="118" r="1" fill="rgb(16,16,16)" />
	<circle cx="401" cy="76" r="1" fill="rgb(37,37,37)" />
	<circle cx="111" cy="439" r="1" fill="rgb(17,17,17)" />
	<circle cx="342" cy="97" r="1" fill="rgb(8,8,8)" />
	<circle cx="174" cy="588" r="1" fill="rgb(127,127,127)" />
	<circle cx="276" cy="512" r="1" fill="rgb(22,22,22)" />
	<circle cx="294" cy="497" r="1" fill="rgb(28,28,28)" />
	<circle cx="389" cy="225" r="1" fill="rgb(15,15,15)" />
	<circle cx="418" cy="694" r="1" fill="rgb(104,104,104)" />
	<circle cx="362" cy="82" r="1" fill="rgb(17,17,17)" />
	<circle cx="321" cy="43" r="1" fill="rgb(36,36,36)" />
	<circle cx="296" cy="119" r="1" fill="rgb(1,1,1)" />
	<circle cx="445" cy="100" r="1" fill="rgb(27,27,27)" />
	<circle cx="516" cy="451" r="1" fill="rgb(31,31,31)" />
	<circle cx="352" cy="525" r="1" fill="rgb(19,19,19)" />
	<circle cx="149" cy="375" r="1" fill="rgb(23,23,23)" />
	<circle cx="484" cy="280" r="1" fill="rgb(43,43,43)" />
	<circle cx="269" cy="129" r="1" fill="rgb(5,5,5)" />
	<circle cx="489" cy="327" r="1" fill="rgb(43,43,43)" />
	<circle cx="79" cy="653" r="1" fill="rgb(148,148,148)" />
	<circle cx="511" cy="309" r="1" fill="rgb(36,36,36)" />
	<circle cx="425" cy="354" r="1" fill="rgb(62,62,62)" />
	<circle cx="195" cy="145" r="1" fill="rgb(8,8,8)" />
	<circle cx="469" cy="349" r="1" fill="rgb(18,18,18)" />
	<circle cx="297" cy="516" r="1" fill="rgb(22,22,22)" />
	<circle cx="341" cy="328" r="1" fill="rgb(41,41,41)" />
	<circle cx="167" cy="233" r="1" fill="rgb(19,19,19)" />
	<circle cx="550" cy="363" r="1" fill="rgb(41,41,41)" />
	<circle cx="545" cy="417" r="1" fill="rgb(36,36,36)" />
	<circle cx="153" cy="357" r="1" fill="rgb(21,21,21)" />
	<circle cx="216" cy="57" r="1" fill="rgb(23,23,23)" />
	<circle cx="152" cy="182" r="1" fill="rgb(14,14,14)" />
	<circle cx="351" cy="120" r="1" fill="rgb(3,3,3)" />
	<circle cx="520" cy="500" r="1" fill="rgb(24,24,24)" />
	<circle cx="396" cy="377" r="1" fill="rgb(115,115,115)" />
	<circle cx="473" cy="519" r="1" fill="rgb(42,42,42)" />
	<circle cx="450" cy="690" r="1" fill="rgb(101,101,101)" />
	<circle cx="292" cy="131" r="1" fill="rgb(2,2,2)" />
	<circle cx="333" cy="523" r="1" fill="rgb(22,22,22)" />
	<circle cx="335" cy="546" r="1" fill="rgb(23,23,23)" />
	<circle cx="229" cy="571" r="1" fill="rgb(92,92,92)" />
	<circle cx="551" cy="382" r="1" fill="rgb(42,42,42)" />
	<circle cx="328" cy="86" r="1" fill="rgb(10,10,10)" />
	<circle cx="492" cy="417" r="1" fill="rgb(34,34,34)" />
	<circle cx="167" cy="659" r="1" fill="rgb(145,145,145)" />
	<circle cx="309" cy="274" r="1" fill="rgb(200,200,200)" />
	<circle cx="397" cy="111" r="1" fill="rgb(11,11,11)" />
	<circle cx="527" cy="398" r="1" fill="rgb(32,32,32)" />
	<circle cx="246" cy="129" r="1" fill="rgb(5,5,5)" />
	<circle cx="375" cy="664" r="1" fill="rgb(42,42,42)" />
	<circle cx="458" cy="164" r="1" fill="rgb(6,6,6)" />
	<circle cx="183" cy="413" r="1" fill="rgb(41,41,41)" />
	<circle cx="282" cy="122" r="1" fill="rgb(6,6,6)" />
	<circle cx="259" cy="236" r="1" fill="rgb(16,16,16)" />
	<circle cx="342" cy="228" r="1" fill="rgb(13,13,13)" />
	<circle cx="308" cy="113" r="1" fill="rgb(2,2,2)" />
	<circle cx="394" cy="520" r="1" fill="rgb(47,47,47)" />
	<circle cx="489" cy="172" r="1" fill="rgb(11,11,11)" />
	<circle cx="527" cy="416" r="1" fill="rgb(32,32,32)" />
	<circle cx="145" cy="397" r="1" fill="rgb(23,23,23)" />
	<circle cx="380" cy="449" r="1" fill="rgb(48,48,48)" />
	<circle cx="467" cy="305" r="1" fill="rgb(22,22,22)" />
	<circle cx="329" cy="100" r="1" fill="rgb(4,4,4)" />
	<circle cx="259" cy="124" r="1" fill="rgb(9,9,9)" />
	<circle cx="531" cy="457" r="1" fill="rgb(76,76,76)" />
	<circle cx="162" cy="543" r="1" fill="rgb(20,20,20)" />
	<circle cx="88" cy="572" r="1" fill="rgb(138,138,138)" />
	<circle cx="114" cy="457" r="1" fill="rgb(23,23,23)" />
	<circle cx="156" cy="273" r="1" fill="rgb(23,23,23)" />
	<circle cx="172" cy="367" r="1" fill="rgb(32,32,32)" />
	<circle cx="175" cy="218" r="1" fill="rgb(29,29,29)" />
	<circle cx="451" cy="264" r="1" fill="rgb(23,23,23)" />
	<circle cx="419" cy="405" r="1" fill="rgb(46,46,46)" />
	<circle cx="430" cy="135" r="1" fill="rgb(12,12,12)" />
	<circle cx="186" cy="517" r="1" fill="rgb(17,17,17)" />
	<circle cx="177" cy="148" r="1" fill="rgb(12,12,12)" />
	<circle cx="333" cy="623" r="1" fill="rgb(94,94,94)" />
	<circle cx="340" cy="79" r="1" fill="rgb(12,12,12)" />
	<circle cx="167" cy="694" r="1" fill="rgb(162,162,162)" />
	<circle cx="211" cy="104" r="1" fill="rgb(6,6,6)" />
	<circle cx="448" cy="345" r="1" fill="rgb(20,20,20)" />
	<circle cx="100" cy="527" r="1" fill="rgb(190,190,190)" />
	<circle cx="456" cy="245" r="1" fill="rgb(35,35,35)" />
	<circle cx="490" cy="351" r="1" fill="rgb(42,42,42)" />
	<circle cx="508" cy="190" r="1" fill="rgb(25,25,25)" />
	<circle cx="203" cy="296" r="1" fill="rgb(209,209,209)" />
	<circle cx="449" cy="537" r="1" fill="rgb(26,26,26)" />
	<circle cx="125" cy="678" r="1" fill="rgb(152,152,152)" />
	<circle cx="305" cy="54" r="1" fill="rgb(23,23,23)" />
	<circle cx="415" cy="510" r="1" fill="rgb(36,36,36)" />
	<circle cx="276" cy="659" r="1" fill="rgb(83,83,83)" />
	<circle cx="282" cy="638" r="1" fill="rgb(68,68,68)" />
	<circle cx="489" cy="304" r="1" fill="rgb(52,52,52)" />
	<circle cx="101" cy="371" r="1" fill="rgb(15,15,15)" />
	<circle cx="243" cy="82" r="1" fill="rgb(10,10,10)" />
	<circle cx="433" cy="560" r="1" fill="rgb(24,24,24)" />
	<circle cx="280" cy="530" r="1" fill="rgb(20,20,20)" />
	<circle cx="531" cy="741" r="1" fill="rgb(146,146,146)" />
	<circle cx="509" cy="169" r="1" fill="rgb(16,16,16)" />
	<circle cx="116" cy="593" r="1" fill="rgb(106,106,106)" />
	<circle cx="128" cy="394" r="1" fill="rgb(17,17,17)" />
	<circle cx="273" cy="112" r="1" fill="rgb(1,1,1)" />
	<circle cx="429" cy="150" r="1" fill="rgb(3,3,3)" />
	<circle cx="341" cy="48" r="1" fill="rgb(39,39,39)" />
	<circle cx="401" cy="154" r="1" fill="rgb(5,5,5)" />
	<circle cx="187" cy="81" r="1" fill="rgb(16,16,16)" />
	<circle cx="258" cy="728" r="1" fill="rgb(104,104,104)" />
	<circle cx="492" cy="206" r="1" fill="rgb(16,16,16)" />
	<circle cx="344" cy="499" r="1" fill="rgb(28,28,28)" />
	<circle cx="384" cy="67" r="1" fill="rgb(36,36,36)" />
	<circle cx="328" cy="130" r="1" fill="rgb(3,3,3)" />
	<circle cx="219" cy="635" r="1" fill="rgb(115,115,115)" />
	<circle cx="396" cy="253" r="1" fill="rgb(55,55,55)" />
	<circle cx="471" cy="329" r="1" fill="rgb(20,20,20)" />
	<circle cx="246" cy="251" r="1" fill="rgb(24,24,24)" />
	<circle cx="136" cy="354" r="1" fill="rgb(17,17,17)" />
	<circle cx="237" cy="219" r="1" fill="rgb(66,66,66)" />
	<circle cx="505" cy="436" r="1" fill="rgb(38,38,38)" />
	<circle cx="156" cy="151" r="1" fill="rgb(10,10,10)" />
	<circle cx="400" cy="94" r="1" fill="rgb(15,15,15)" />
	<circle cx="244" cy="747" r="1" fill="rgb(147,147,147)" />
	<circle cx="209" cy="523" r="1" fill="rgb(22,22,22)" />
	<circle cx="105" cy="622" r="1" fill="rgb(67,67,67)" />
	<circle cx="455" cy="188" r="1" fill="rgb(13,13,13)" />
	<circle cx="327" cy="63" r="1" fill="rgb(24,24,24)" />
	<circle cx="533" cy="244" r="1" fill="rgb(45,45,45)" />
	<circle cx="502" cy="713" r="1" fill="rgb(120,120,120)" />
	<circle cx="278" cy="614" r="1" fill="rgb(67,67,67)" />
	<circle cx="143" cy="302" r="1" fill="rgb(9,9,9)" />
	<circle cx="266" cy="96" r="1" fill="rgb(4,4,4)" />
	<circle cx="382" cy="239" r="1" fill="rgb(14,14,14)" />
	<circle cx="536" cy="432" r="1" fill="rgb(31,31,31)" />
	<circle cx="163" cy="324" r="1" fill="rgb(29,29,29)" />
	<circle cx="443" cy="367" r="1" fill="rgb(24,24,24)" />
	<circle cx="341" cy="132" r="1" fill="rgb(2,2,2)" />
	<circle cx="466" cy="470" r="1" fill="rgb(26,26,26)" />
	<circle cx="159" cy="306" r="1" fill="rgb(19,19,19)" />
	<circle cx="204" cy="456" r="1" fill="rgb(38,38,38)" />
	<circle cx="387" cy="697" r="1" fill="rgb(83,83,83)" />
	<circle cx="487" cy="436" r="1" fill="rgb(37,37,37)" />
	<circle cx="204" cy="70" r="1" fill="rgb(17,17,17)" />
	<circle cx="271" cy="494" r="1" fill="rgb(24,24,24)" />
	<circle cx="43" cy="709" r="1" fill="rgb(162,162,162)" />
	<circle cx="499" cy="454" r="1" fill="rgb(34,34,34)" />
	<circle cx="418" cy="202" r="1" fill="rgb(163,163,163)" />
	<circle cx="76" cy="744" r="1" fill="rgb(196,196,196)" />
	<circle cx="320" cy="138" r="1" fill="rgb(3,3,3)" />
	<circle cx="316" cy="582" r="1" fill="rgb(121,121,121)" />
	<circle cx="345" cy="581" r="1" fill="rgb(79,79,79)" />
	<circle cx="365" cy="633" r="1" fill="rgb(70,70,70)" />
	<circle cx="184" cy="130" r="1" fill="rgb(6,6,6)" />
	<circle cx="521" cy="685" r="1" fill="rgb(133,133,133)" />
	<circle cx="241" cy="242" r="1" fill="rgb(24,24,24)" />
	<circle cx="519" cy="269" r="1" fill="rgb(42,42,42)" />
	<circle cx="469" cy="442" r="1" fill="rgb(24,24,24)" />
	<circle cx="451" cy="450" r="1" fill="rgb(24,24,24)" />
	<circle cx="425" cy="485" r="1" fill="rgb(22,22,22)" />
	<circle cx="524" cy="228" r="1" fill="rgb(36,36,36)" />
	<circle cx="439" cy="584" r="1" fill="rgb(28,28,28)" />
	<circle cx="568" cy="696" r="1" fill="rgb(175,175,175)" />
	<circle cx="459" cy="585" r="1" fill="rgb(33,33,33)" />
	<circle cx="306" cy="714" r="1" fill="rgb(102,102,102)" />
	<circle cx="159" cy="116" r="1" fill="rgb(11,11,11)" />
	<circle cx="377" cy="141" r="1" fill="rgb(5,5,5)" />
	<circle cx="436" cy="250" r="1" fill="rgb(20,20,20)" />
	<circle cx="472" cy="259" r="1" fill="rgb(37,37,37)" />
	<circle cx="283" cy="101" r="1" fill="rgb(3,3,3)" />
	<circle cx="447" cy="174" r="1" fill="rgb(9,9,9)" />
	<circle cx="462" cy="150" r="1" fill="rgb(9,9,9)" />
	<circle cx="376" cy="224" r="1" fill="rgb(9,9,9)" />
	<circle cx="127" cy="298" r="1" fill="rgb(8,8,8)" />
	<circle cx="164" cy="505" r="1" fill="rgb(22,22,22)" />
	<circle cx="302" cy="620" r="1" fill="rgb(63,63,63)" />
	<circle cx="201" cy="128" r="1" fill="rgb(3,3,3)" />
	<circle cx="553" cy="399" r="1" fill="rgb(45,45,45)" />
	<circle cx="397" cy="723" r="1" fill="rgb(100,100,100)" />
	<circle cx="385" cy="470" r="1" fill="rgb(28,28,28)" />
	<circle cx="460" cy="405" r="1" fill="rgb(22,22,22)" />
	<circle cx="458" cy="426" r="1" fill="rgb(20,20,20)" />
	<circle cx="363" cy="225" r="1" fill="rgb(12,12,12)" />
	<circle cx="226" cy="72" r="1" fill="rgb(8,8,8)" />
	<circle cx="127" cy="430" r="1" fill="rgb(24,24,24)" />
	<circle cx="132" cy="374" r="1" fill="rgb(13,13,13)" />
	<circle cx="366" cy="724" r="1" fill="rgb(108,108,108)" />
	<circle cx="163" cy="410" r="1" fill="rgb(30,30,30)" />
	<circle cx="410" cy="565" r="1" fill="rgb(39,39,39)" />
	<circle cx="343" cy="241" r="1" fill="rgb(14,14,14)" />
	<circle cx="153" cy="745" r="1" fill="rgb(194,194,194)" />
	<circle cx="118" cy="721" r="1" fill="rgb(187,187,187)" />
	<circle cx="461" cy="366" r="1" fill="rgb(16,16,16)" />
	<circle cx="319" cy="502" r="1" fill="rgb(29,29,29)" />
	<circle cx="255" cy="624" r="1" fill="rgb(91,91,91)" />
	<circle cx="389" cy="142" r="1" fill="rgb(2,2,2)" />
	<circle cx="265" cy="544" r="1" fill="rgb(22,22,22)" />
	<circle cx="150" cy="167" r="1" fill="rgb(11,11,11)" />
	<circle cx="510" cy="211" r="1" fill="rgb(22,22,22)" />
	<circle cx="134" cy="334" r="1" fill="rgb(14,14,14)" />
	<circle cx="145" cy="319" r="1" fill="rgb(13,13,13)" />
	<circle cx="550" cy="319" r="1" fill="rgb(55,55,55)" />
	<circle cx="214" cy="701" r="1" fill="rgb(136,136,136)" />
	<circle cx="366" cy="137" r="1" fill="rgb(3,3,3)" />
	<circle cx="101" cy="353" r="1" fill="rgb(12,12,12)" />
	<circle cx="497" cy="264" r="1" fill="rgb(27,27,27)" />
	<circle cx="260" cy="110" r="1" fill="rgb(3,3,3)" />
	<circle cx="375" cy="567" r="1" fill="rgb(69,69,69)" />
	<circle cx="245" cy="114" r="1" fill="rgb(3,3,3)" />
	<circle cx="452" cy="636" r="1" fill="rgb(76,76,76)" />
	<circle cx="290" cy="748" r="1" fill="rgb(146,146,146)" />
	<circle cx="379" cy="427" r="1" fill="rgb(63,63,63)" />
	<circle cx="533" cy="360" r="1" fill="rgb(38,38,38)" />
	<circle cx="69" cy="615" r="1" fill="rgb(131,131,131)" />
	<circle cx="136" cy="565" r="1" fill="rgb(129,129,129)" />
	<circle cx="152" cy="478" r="1" fill="rgb(22,22,22)" />
	<circle cx="164" cy="388" r="1" fill="rgb(28,28,28)" />
	<circle cx="504" cy="231" r="1" fill="rgb(20,20,20)" />
	<circle cx="127" cy="448" r="1" fill="rgb(24,24,24)" />
	<circle cx="25" cy="750" r="1" fill="rgb(151,151,151)" />
	<circle cx="94" cy="465" r="1" fill="rgb(14,14,14)" />
	<circle cx="485" cy="499" r="1" fill="rgb(61,61,61)" />
	<circle cx="194" cy="476" r="1" fill="rgb(30,30,30)" />
	<circle cx="497" cy="135" r="1" fill="rgb(28,28,28)" />
	<circle cx="354" cy="135" r="1" fill="rgb(2,2,2)" />
	<circle cx="173" cy="164" r="1" fill="rgb(15,15,15)" />
	<circle cx="173" cy="202" r="1" fill="rgb(61,61,61)" />
	<circle cx="436" cy="293" r="1" fill="rgb(119,119,119)" />
	<circle cx="368" cy="511" r="1" fill="rgb(24,24,24)" />
	<circle cx="158" cy="198" r="1" fill="rgb(29,29,29)" />
	<circle cx="261" cy="81" r="1" fill="rgb(5,5,5)" />
	<circle cx="273" cy="212" r="1" fill="rgb(226,226,226)" />
	<circle cx="78" cy="693" r="1" fill="rgb(170,170,170)" />
	<circle cx="5" cy="740" r="1" fill="rgb(2,2,2)" />
	<circle cx="117" cy="364" r="1" fill="rgb(12,12,12)" />
	<circle cx="463" cy="491" r="1" fill="rgb(32,32,32)" />
	<circle cx="111" cy="268" r="1" fill="rgb(34,34,34)" />
	<circle cx="304" cy="130" r="1" fill="rgb(3,3,3)" />
	<circle cx="302" cy="664" r="1" fill="rgb(59,59,59)" />
	<circle cx="475" cy="417" r="1" fill="rgb(24,24,24)" />
	<circle cx="170" cy="488" r="1" fill="rgb(22,22,22)" />
	<circle cx="196" cy="114" r="1" fill="rgb(5,5,5)" />
	<circle cx="433" cy="722" r="1" fill="rgb(115,115,115)" />
	<circle cx="240" cy="705" r="1" fill="rgb(69,69,69)" />
	<circle cx="369" cy="72" r="1" fill="rgb(22,22,22)" />
	<circle cx="242" cy="486" r="1" fill="rgb(19,19,19)" />
	<circle cx="534" cy="380" r="1" fill="rgb(33,33,33)" />
	<circle cx="396" cy="589" r="1" fill="rgb(51,51,51)" />
	<circle cx="190" cy="98" r="1" fill="rgb(10,10,10)" />
	<circle cx="399" cy="130" r="1" fill="rgb(4,4,4)" />
	<circle cx="160" cy="454" r="1" fill="rgb(27,27,27)" />
	<circle cx="419" cy="82" r="1" fill="rgb(33,33,33)" />
	<circle cx="175" cy="560" r="1" fill="rgb(54,54,54)" />
	<circle cx="114" cy="380" r="1" fill="rgb(14,14,14)" />
	<circle cx="22" cy="616" r="1" fill="rgb(169,169,169)" />
	<circle cx="516" cy="389" r="1" fill="rgb(34,34,34)" />
	<circle cx="276" cy="235" r="1" fill="rgb(21,21,21)" />
	<circle cx="233" cy="51" r="1" fill="rgb(23,23,23)" />
	<circle cx="255" cy="502" r="1" fill="rgb(21,21,21)" />
	<circle cx="215" cy="136" r="1" fill="rgb(5,5,5)" />
	<circle cx="367" cy="237" r="1" fill="rgb(7,7,7)" />
	<circle cx="446" cy="117" r="1" fill="rgb(20,20,20)" />
	<circle cx="445" cy="134" r="1" fill="rgb(13,13,13)" />
	<circle cx="230" cy="541" r="1" fill="rgb(27,27,27)" />
	<circle cx="195" cy="198" r="1" fill="rgb(171,171,171)" />
	<circle cx="530" cy="318" r="1" fill="rgb(46,46,46)" />
	<circle cx="455" cy="561" r="1" fill="rgb(29,29,29)" />
	<circle cx="474" cy="195" r="1" fill="rgb(12,12,12)" />
	<circle cx="154" cy="134" r="1" fill="rgb(10,10,10)" />
	<circle cx="403" cy="232" r="1" fill="rgb(39,39,39)" />
	<circle cx="426" cy="663" r="1" fill="rgb(84,84,84)" />
	<circle cx="139" cy="616" r="1" fill="rgb(142,142,142)" />
	<circle cx="573" cy="745" r="1" fill="rgb(157,157,157)" />
	<circle cx="327" cy="673" r="1" fill="rgb(66,66,66)" />
	<circle cx="380" cy="108" r="1" fill="rgb(11,11,11)" />
	<circle cx="479" cy="139" r="1" fill="rgb(18,18,18)" />
	<circle cx="504" cy="489" r="1" fill="rgb(28,28,28)" />
	<circle cx="234" cy="513" r="1" fill="rgb(50,50,50)" />
	<circle cx="230" cy="674" r="1" fill="rgb(99,99,99)" />
	<circle cx="299" cy="150" r="1" fill="rgb(185,185,185)" />
	<circle cx="117" cy="320" r="1" fill="rgb(8,8,8)" />
	<circle cx="213" cy="598" r="1" fill="rgb(117,117,117)" />
	<circle cx="365" cy="97" r="1" fill="rgb(13,13,13)" />
	<circle cx="129" cy="315" r="1" fill="rgb(7,7,7)" />
	<circle cx="385" cy="125" r="1" fill="rgb(3,3,3)" />
	<circle cx="365" cy="401" r="1" fill="rgb(82,82,82)" />
	<circle cx="258" cy="524" r="1" fill="rgb(31,31,31)" />
	<circle cx="166" cy="525" r="1" fill="rgb(18,18,18)" />
	<circle cx="399" cy="643" r="1" fill="rgb(59,59,59)" />
	<circle cx="211" cy="255" r="1" fill="rgb(51,51,51)" />
	<circle cx="454" cy="514" r="1" fill="rgb(24,24,24)" />
	<circle cx="220" cy="411" r="1" fill="rgb(187,187,187)" />
	<circle cx="10" cy="719" r="1" fill="rgb(97,97,97)" />
	<circle cx="424" cy="381" r="1" fill="rgb(56,56,56)" />
	<circle cx="402" cy="425" r="1" fill="rgb(41,41,41)" />
	<circle cx="169" cy="180" r="1" fill="rgb(27,27,27)" />
	<circle cx="526" cy="173" r="1" fill="rgb(22,22,22)" />
	<circle cx="348" cy="66" r="1" fill="rgb(30,30,30)" />
	<circle cx="107" cy="328" r="1" fill="rgb(9,9,9)" />
	<circle cx="302" cy="38" r="1" fill="rgb(32,32,32)" />
	<circle cx="365" cy="753" r="1" fill="rgb(122,122,122)" />
	<circle cx="511" cy="470" r="1" fill="rgb(27,27,27)" />
	<circle cx="335" cy="724" r="1" fill="rgb(98,98,98)" />
	<circle cx="328" cy="648" r="1" fill="rgb(74,74,74)" />
	<circle cx="461" cy="204" r="1" fill="rgb(30,30,30)" />
	<circle cx="497" cy="154" r="1" fill="rgb(19,19,19)" />
	<circle cx="507" cy="588" r="1" fill="rgb(209,209,209)" />
	<circle cx="458" cy="660" r="1" fill="rgb(93,93,93)" />
	<circle cx="424" cy="636" r="1" fill="rgb(62,62,62)" />
	<circle cx="99" cy="313" r="1" fill="rgb(25,25,25)" />
	<circle cx="492" cy="749" r="1" fill="rgb(131,131,131)" />
	<circle cx="316" cy="545" r="1" fill="rgb(23,23,23)" />
	<circle cx="231" cy="101" r="1" fill="rgb(3,3,3)" />
	<circle cx="139" cy="253" r="1" fill="rgb(14,14,14)" />
	<circle cx="409" cy="469" r="1" fill="rgb(28,28,28)" />
	<circle cx="476" cy="159" r="1" fill="rgb(11,11,11)" />
	<circle cx="535" cy="246" r="1" fill="rgb(231,231,231)" />
	<circle cx="445" cy="151" r="1" fill="rgb(7,7,7)" />
	<circle cx="298" cy="104" r="1" fill="rgb(6,6,6)" />
	<circle cx="111" cy="305" r="1" fill="rgb(7,7,7)" />
	<circle cx="314" cy="324" r="1" fill="rgb(92,92,92)" />
	<circle cx="295" cy="78" r="1" fill="rgb(62,62,62)" />
	<circle cx="399" cy="545" r="1" fill="rgb(58,58,58)" />
	<circle cx="122" cy="349" r="1" fill="rgb(16,16,16)" />
	<circle cx="158" cy="290" r="1" fill="rgb(19,19,19)" />
	<circle cx="448" cy="212" r="1" fill="rgb(96,96,96)" />
	<circle cx="37" cy="660" r="1" fill="rgb(155,155,155)" />
	<circle cx="90" cy="603" r="1" fill="rgb(65,65,65)" />
	<circle cx="509" cy="333" r="1" fill="rgb(51,51,51)" />
	<circle cx="506" cy="286" r="1" fill="rgb(31,31,31)" />
	<circle cx="105" cy="289" r="1" fill="rgb(23,23,23)" />
	<circle cx="411" cy="120" r="1" fill="rgb(13,13,13)" />
	<circle cx="200" cy="565" r="1" fill="rgb(59,59,59)" />
	<circle cx="209" cy="544" r="1" fill="rgb(27,27,27)" />
	<circle cx="167" cy="247" r="1" fill="rgb(22,22,22)" />
	<circle cx="483" cy="678" r="1" fill="rgb(113,113,113)" />
	<circle cx="273" cy="577" r="1" fill="rgb(119,119,119)" />
	<circle cx="185" cy="624" r="1" fill="rgb(133,133,133)" />
	<circle cx="531" cy="211" r="1" fill="rgb(41,41,41)" />
</svg>
