<?xml version="1.0" standalone="no" ?>
<!DOCTYPE svg PUBLIC "-//W3C//DTD SVG 1.1//EN" "http://www.w3.org/Graphics/SVG/1.1/DTD/svg11.dtd">
<svg width="800px" height="600px" xmlns="http://www.w3.org/2000/svg" version="1.1" >
	<circle cx="13" cy="43" r="1" fill="rgb(139,139,139)" />
	<circle cx="469" cy="126" r="1" fill="rgb(133,133,133)" />
	<circle cx="592" cy="46" r="1" fill="rgb(144,144,144)" />
	<circle cx="452" cy="376" r="1" fill="rgb(32,32,32)" />
	<circle cx="282" cy="587" r="1" fill="rgb(136,136,136)" />
	<circle cx="151" cy="262" r="1" fill="rgb(125,125,125)" />
	<circle cx="117" cy="14" r="1" fill="rgb(145,145,145)" />
	<circle cx="589" cy="164" r="1" fill="rgb(142,142,142)" />
	<circle cx="663" cy="113" r="1" fill="rgb(146,146,146)" />
	<circle cx="179" cy="560" r="1" fill="rgb(151,151,151)" />
	<circle cx="42" cy="409" r="1" fill="rgb(145,145,145)" />
	<circle cx="449" cy="501" r="1" fill="rgb(152,152,152)" />
	<circle cx="46" cy="588" r="1" fill="rgb(133,133,133)" />
	<circle cx="186" cy="16" r="1" fill="rgb(152,152,152)" />
	<circle cx="217" cy="280" r="1" fill="rgb(62,62,62)" />
	<circle cx="639" cy="352" r="1" fill="rgb(144,144,144)" />
	<circle cx="613" cy="261" r="1" fill="rgb(146,146,146)" />
	<circle cx="491" cy="203" r="1" fill="rgb(156,156,156)" />
	<circle cx="733" cy="273" r="1" fill="rgb(138,138,138)" />
	<circle cx="328" cy="331" r="1" fill="rgb(33,33,33)" />
	<circle cx="131" cy="482" r="1" fill="rgb(137,137,137)" />
	<circle cx="381" cy="521" r="1" fill="rgb(152,152,152)" />
	<circle cx="475" cy="550" r="1" fill="rgb(153,153,153)" />
	<circle cx="139" cy="446" r="1" fill="rgb(150,150,150)" />
	<circle cx="438" cy="381" r="1" fill="rgb(26,26,26)" />
	<circle cx="312" cy="411" r="1" fill="rgb(79,79,79)" />
	<circle cx="733" cy="36" r="1" fill="rgb(138,138,138)" />
	<circle cx="271" cy="86" r="1" fill="rgb(100,100,100)" />
	<circle cx="68" cy="60" r="1" fill="rgb(143,143,143)" />
	<circle cx="466" cy="92" r="1" fill="rgb(138,138,138)" />
	<circle cx="58" cy="221" r="1" fill="rgb(140,140,140)" />
	<circle cx="240" cy="331" r="1" fill="rgb(72,72,72)" />
	<circle cx="141" cy="314" r="1" fill="rgb(93,93,93)" />
	<circle cx="492" cy="449" r="1" fill="rgb(148,148,148)" />
	<circle cx="302" cy="213" r="1" fill="rgb(46,46,46)" />
	<circle cx="244" cy="58" r="1" fill="rgb(146,146,146)" />
	<circle cx="719" cy="309" r="1" fill="rgb(145,145,145)" />
	<circle cx="428" cy="406" r="1" fill="rgb(146,146,146)" />
	<circle cx="548" cy="466" r="1" fill="rgb(147,147,147)" />
	<circle cx="611" cy="290" r="1" fill="rgb(152,152,152)" />
	<circle cx="552" cy="211" r="1" fill="rgb(139,139,139)" />
	<circle cx="202" cy="388" r="1" fill="rgb(76,76,76)" />
	<circle cx="103" cy="68" r="1" fill="rgb(146,146,146)" />
	<circle cx="536" cy="306" r="1" fill="rgb(122,122,122)" />
	<circle cx="15" cy="586" r="1" fill="rgb(131,131,131)" />
	<circle cx="208" cy="52" r="1" fill="rgb(149,149,149)" />
	<circle cx="88" cy="159" r="1" fill="rgb(146,146,146)" />
	<circle cx="698" cy="44" r="1" fill="rgb(139,139,139)" />
	<circle cx="523" cy="448" r="1" fill="rgb(149,149,149)" />
	<circle cx="651" cy="317" r="1" fill="rgb(155,155,155)" />
	<circle cx="168" cy="498" r="1" fill="rgb(153,153,153)" />
	<circle cx="118" cy="100" r="1" fill="rgb(147,147,147)" />
	<circle cx="381" cy="347" r="1" fill="rgb(181,181,181)" />
	<circle cx="598" cy="564" r="1" fill="rgb(147,147,147)" />
	<circle cx="720" cy="215" r="1" fill="rgb(147,147,147)" />
	<circle cx="189" cy="232" r="1" fill="rgb(141,141,141)" />
	<circle cx="517" cy="312" r="1" fill="rgb(145,145,145)" />
	<circle cx="388" cy="284" r="1" fill="rgb(187,187,187)" />
	<circle cx="24" cy="344" r="1" fill="rgb(147,147,147)" />
	<circle cx="187" cy="587" r="1" fill="rgb(146,146,146)" />
	<circle cx="244" cy="403" r="1" fill="rgb(63,63,63)" />
	<circle cx="785" cy="205" r="1" fill="rgb(143,143,143)" />
	<circle cx="334" cy="207" r="1" fill="rgb(94,94,94)" />
	<circle cx="257" cy="226" r="1" fill="rgb(62,62,62)" />
	<circle cx="158" cy="586" r="1" fill="rgb(154,154,154)" />
	<circle cx="307" cy="587" r="1" fill="rgb(142,142,142)" />
	<circle cx="307" cy="126" r="1" fill="rgb(121,121,121)" />
	<circle cx="211" cy="336" r="1" fill="rgb(92,92,92)" />
	<circle cx="108" cy="430" r="1" fill="rgb(146,146,146)" />
	<circle cx="306" cy="472" r="1" fill="rgb(144,144,144)" />
	<circle cx="783" cy="366" r="1" fill="rgb(141,141,141)" />
	<circle cx="15" cy="431" r="1" fill="rgb(137,137,137)" />
	<circle cx="712" cy="529" r="1" fill="rgb(139,139,139)" />
	<circle cx="157" cy="225" r="1" fill="rgb(138,138,138)" />
	<circle cx="486" cy="394" r="1" fill="rgb(80,80,80)" />
	<circle cx="584" cy="221" r="1" fill="rgb(144,144,144)" />
	<circle cx="224" cy="361" r="1" fill="rgb(63,63,63)" />
	<circle cx="340" cy="557" r="1" fill="rgb(149,149,149)" />
	<circle cx="126" cy="44" r="1" fill="rgb(148,148,148)" />
	<circle cx="195" cy="291" r="1" fill="rgb(63,63,63)" />
	<circle cx="217" cy="488" r="1" fill="rgb(148,148,148)" />
	<circle cx="418" cy="384" r="1" fill="rgb(91,91,91)" />
	<circle cx="781" cy="585" r="1" fill="rgb(134,134,134)" />
	<circle cx="671" cy="464" r="1" fill="rgb(146,146,146)" />
	<circle cx="435" cy="563" r="1" fill="rgb(144,144,144)" />
	<circle cx="75" cy="260" r="1" fill="rgb(125,125,125)" />
	<circle cx="609" cy="72" r="1" fill="rgb(153,153,153)" />
	<circle cx="38" cy="188" r="1" fill="rgb(146,146,146)" />
	<circle cx="573" cy="348" r="1" fill="rgb(146,146,146)" />
	<circle cx="301" cy="152" r="1" fill="rgb(140,140,140)" />
	<circle cx="644" cy="289" r="1" fill="rgb(150,150,150)" />
	<circle cx="245" cy="92" r="1" fill="rgb(130,130,130)" />
	<circle cx="106" cy="502" r="1" fill="rgb(139,139,139)" />
	<circle cx="321" cy="305" r="1" fill="rgb(22,22,22)" />
	<circle cx="744" cy="585" r="1" fill="rgb(140,140,140)" />
	<circle cx="246" cy="504" r="1" fill="rgb(152,152,152)" />
	<circle cx="368" cy="492" r="1" fill="rgb(146,146,146)" />
	<circle cx="170" cy="285" r="1" fill="rgb(38,38,38)" />
	<circle cx="626" cy="409" r="1" fill="rgb(154,154,154)" />
	<circle cx="269" cy="417" r="1" fill="rgb(96,96,96)" />
	<circle cx="368" cy="584" r="1" fill="rgb(148,148,148)" />
	<circle cx="664" cy="19" r="1" fill="rgb(136,136,136)" />
	<circle cx="458" cy="461" r="1" fill="rgb(156,156,156)" />
	<circle cx="694" cy="334" r="1" fill="rgb(140,140,140)" />
	<circle cx="557" cy="295" r="1" fill="rgb(138,138,138)" />
	<circle cx="151" cy="15" r="1" fill="rgb(146,146,146)" />
	<circle cx="611" cy="532" r="1" fill="rgb(138,138,138)" />
	<circle cx="314" cy="393" r="1" fill="rgb(63,63,63)" />
	<circle cx="13" cy="398" r="1" fill="rgb(139,139,139)" />
	<circle cx="14" cy="490" r="1" fill="rgb(136,136,136)" />
	<circle cx="335" cy="124" r="1" fill="rgb(152,152,152)" />
	<circle cx="104" cy="299" r="1" fill="rgb(36,36,36)" />
	<circle cx="121" cy="302" r="1" fill="rgb(34,34,34)" />
	<circle cx="122" cy="281" r="1" fill="rgb(34,34,34)" />
	<circle cx="18" cy="14" r="1" fill="rgb(132,132,132)" />
	<circle cx="225" cy="305" r="1" fill="rgb(70,70,70)" />
	<circle cx="523" cy="159" r="1" fill="rgb(134,134,134)" />
	<circle cx="742" cy="64" r="1" fill="rgb(136,136,136)" />
	<circle cx="582" cy="316" r="1" fill="rgb(150,150,150)" />
	<circle cx="604" cy="338" r="1" fill="rgb(148,148,148)" />
	<circle cx="136" cy="194" r="1" fill="rgb(146,146,146)" />
	<circle cx="18" cy="277" r="1" fill="rgb(141,141,141)" />
	<circle cx="47" cy="154" r="1" fill="rgb(150,150,150)" />
	<circle cx="47" cy="291" r="1" fill="rgb(117,117,117)" />
	<circle cx="266" cy="247" r="1" fill="rgb(30,30,30)" />
	<circle cx="319" cy="226" r="1" fill="rgb(36,36,36)" />
	<circle cx="526" cy="220" r="1" fill="rgb(148,148,148)" />
	<circle cx="784" cy="519" r="1" fill="rgb(135,135,135)" />
	<circle cx="496" cy="42" r="1" fill="rgb(131,131,131)" />
	<circle cx="13" cy="177" r="1" fill="rgb(145,145,145)" />
	<circle cx="779" cy="95" r="1" fill="rgb(142,142,142)" />
	<circle cx="708" cy="152" r="1" fill="rgb(153,153,153)" />
	<circle cx="489" cy="161" r="1" fill="rgb(146,146,146)" />
	<circle cx="53" cy="17" r="1" fill="rgb(137,137,137)" />
	<circle cx="460" cy="585" r="1" fill="rgb(144,144,144)" />
	<circle cx="784" cy="398" r="1" fill="rgb(142,142,142)" />
	<circle cx="684" cy="402" r="1" fill="rgb(144,144,144)" />
	<circle cx="391" cy="134" r="1" fill="rgb(148,148,148)" />
	<circle cx="13" cy="73" r="1" fill="rgb(140,140,140)" />
	<circle cx="702" cy="13" r="1" fill="rgb(136,136,136)" />
	<circle cx="554" cy="155" r="1" fill="rgb(140,140,140)" />
	<circle cx="426" cy="273" r="1" fill="rgb(178,178,178)" />
	<circle cx="279" cy="12" r="1" fill="rgb(145,145,145)" />
	<circle cx="745" cy="529" r="1" fill="rgb(135,135,135)" />
	<circle cx="585" cy="509" r="1" fill="rgb(148,148,148)" />
	<circle cx="740" cy="125" r="1" fill="rgb(143,143,143)" />
	<circle cx="283" cy="254" r="1" fill="rgb(22,22,22)" />
	<circle cx="329" cy="32" r="1" fill="rgb(122,122,122)" />
	<circle cx="240" cy="434" r="1" fill="rgb(138,138,138)" />
	<circle cx="493" cy="103" r="1" fill="rgb(140,140,140)" />
	<circle cx="560" cy="267" r="1" fill="rgb(143,143,143)" />
	<circle cx="749" cy="343" r="1" fill="rgb(147,147,147)" />
	<circle cx="703" cy="116" r="1" fill="rgb(149,149,149)" />
	<circle cx="636" cy="478" r="1" fill="rgb(144,144,144)" />
	<circle cx="390" cy="224" r="1" fill="rgb(95,95,95)" />
	<circle cx="167" cy="305" r="1" fill="rgb(51,51,51)" />
	<circle cx="137" cy="515" r="1" fill="rgb(147,147,147)" />
	<circle cx="375" cy="429" r="1" fill="rgb(149,149,149)" />
	<circle cx="526" cy="414" r="1" fill="rgb(139,139,139)" />
	<circle cx="783" cy="166" r="1" fill="rgb(151,151,151)" />
	<circle cx="399" cy="581" r="1" fill="rgb(142,142,142)" />
	<circle cx="134" cy="347" r="1" fill="rgb(137,137,137)" />
	<circle cx="621" cy="317" r="1" fill="rgb(153,153,153)" />
	<circle cx="719" cy="557" r="1" fill="rgb(138,138,138)" />
	<circle cx="204" cy="540" r="1" fill="rgb(151,151,151)" />
	<circle cx="338" cy="422" r="1" fill="rgb(139,139,139)" />
	<circle cx="550" cy="532" r="1" fill="rgb(146,146,146)" />
	<circle cx="178" cy="102" r="1" fill="rgb(148,148,148)" />
	<circle cx="605" cy="475" r="1" fill="rgb(144,144,144)" />
	<circle cx="69" cy="303" r="1" fill="rgb(41,41,41)" />
	<circle cx="80" cy="395" r="1" fill="rgb(149,149,149)" />
	<circle cx="539" cy="127" r="1" fill="rgb(144,144,144)" />
	<circle cx="401" cy="13" r="1" fill="rgb(145,145,145)" />
	<circle cx="448" cy="41" r="1" fill="rgb(149,149,149)" />
	<circle cx="263" cy="320" r="1" fill="rgb(50,50,50)" />
	<circle cx="360" cy="14" r="1" fill="rgb(144,144,144)" />
	<circle cx="18" cy="216" r="1" fill="rgb(145,145,145)" />
	<circle cx="514" cy="552" r="1" fill="rgb(150,150,150)" />
	<circle cx="83" cy="11" r="1" fill="rgb(140,140,140)" />
	<circle cx="388" cy="391" r="1" fill="rgb(144,144,144)" />
	<circle cx="588" cy="267" r="1" fill="rgb(143,143,143)" />
	<circle cx="460" cy="398" r="1" fill="rgb(113,113,113)" />
	<circle cx="85" cy="285" r="1" fill="rgb(35,35,35)" />
	<circle cx="402" cy="97" r="1" fill="rgb(153,153,153)" />
	<circle cx="554" cy="181" r="1" fill="rgb(143,143,143)" />
	<circle cx="641" cy="261" r="1" fill="rgb(148,148,148)" />
	<circle cx="245" cy="253" r="1" fill="rgb(49,49,49)" />
	<circle cx="73" cy="459" r="1" fill="rgb(132,132,132)" />
	<circle cx="693" cy="494" r="1" fill="rgb(146,146,146)" />
	<circle cx="371" cy="555" r="1" fill="rgb(146,146,146)" />
	<circle cx="291" cy="402" r="1" fill="rgb(60,60,60)" />
	<circle cx="42" cy="250" r="1" fill="rgb(141,141,141)" />
	<circle cx="330" cy="179" r="1" fill="rgb(64,64,64)" />
	<circle cx="494" cy="584" r="1" fill="rgb(141,141,141)" />
	<circle cx="270" cy="370" r="1" fill="rgb(59,59,59)" />
	<circle cx="438" cy="224" r="1" fill="rgb(180,180,180)" />
	<circle cx="102" cy="277" r="1" fill="rgb(35,35,35)" />
	<circle cx="580" cy="543" r="1" fill="rgb(144,144,144)" />
	<circle cx="789" cy="274" r="1" fill="rgb(142,142,142)" />
	<circle cx="748" cy="457" r="1" fill="rgb(145,145,145)" />
	<circle cx="667" cy="341" r="1" fill="rgb(145,145,145)" />
	<circle cx="462" cy="426" r="1" fill="rgb(155,155,155)" />
	<circle cx="746" cy="13" r="1" fill="rgb(138,138,138)" />
	<circle cx="757" cy="189" r="1" fill="rgb(144,144,144)" />
	<circle cx="663" cy="189" r="1" fill="rgb(145,145,145)" />
	<circle cx="479" cy="513" r="1" fill="rgb(148,148,148)" />
	<circle cx="336" cy="237" r="1" fill="rgb(38,38,38)" />
	<circle cx="309" cy="346" r="1" fill="rgb(44,44,44)" />
	<circle cx="206" cy="131" r="1" fill="rgb(147,147,147)" />
	<circle cx="87" cy="585" r="1" fill="rgb(141,141,141)" />
	<circle cx="66" cy="285" r="1" fill="rgb(50,50,50)" />
	<circle cx="232" cy="230" r="1" fill="rgb(98,98,98)" />
	<circle cx="303" cy="262" r="1" fill="rgb(16,16,16)" />
	<circle cx="748" cy="379" r="1" fill="rgb(141,141,141)" />
	<circle cx="621" cy="15" r="1" fill="rgb(141,141,141)" />
	<circle cx="192" cy="165" r="1" fill="rgb(145,145,145)" />
	<circle cx="194" cy="465" r="1" fill="rgb(139,139,139)" />
	<circle cx="543" cy="12" r="1" fill="rgb(140,140,140)" />
	<circle cx="762" cy="279" r="1" fill="rgb(139,139,139)" />
	<circle cx="172" cy="442" r="1" fill="rgb(144,144,144)" />
	<circle cx="281" cy="227" r="1" fill="rgb(36,36,36)" />
	<circle cx="689" cy="433" r="1" fill="rgb(147,147,147)" />
	<circle cx="750" cy="156" r="1" fill="rgb(142,142,142)" />
	<circle cx="219" cy="254" r="1" fill="rgb(97,97,97)" />
	<circle cx="685" cy="246" r="1" fill="rgb(141,141,141)" />
	<circle cx="44" cy="509" r="1" fill="rgb(148,148,148)" />
	<circle cx="724" cy="423" r="1" fill="rgb(149,149,149)" />
	<circle cx="87" cy="305" r="1" fill="rgb(37,37,37)" />
	<circle cx="665" cy="151" r="1" fill="rgb(146,146,146)" />
	<circle cx="209" cy="200" r="1" fill="rgb(147,147,147)" />
	<circle cx="584" cy="444" r="1" fill="rgb(152,152,152)" />
	<circle cx="630" cy="174" r="1" fill="rgb(147,147,147)" />
	<circle cx="12" cy="249" r="1" fill="rgb(133,133,133)" />
	<circle cx="369" cy="462" r="1" fill="rgb(153,153,153)" />
	<circle cx="586" cy="408" r="1" fill="rgb(152,152,152)" />
	<circle cx="551" cy="562" r="1" fill="rgb(150,150,150)" />
	<circle cx="741" cy="94" r="1" fill="rgb(140,140,140)" />
	<circle cx="534" cy="96" r="1" fill="rgb(151,151,151)" />
	<circle cx="582" cy="289" r="1" fill="rgb(144,144,144)" />
	<circle cx="755" cy="221" r="1" fill="rgb(142,142,142)" />
	<circle cx="327" cy="282" r="1" fill="rgb(20,20,20)" />
	<circle cx="529" cy="586" r="1" fill="rgb(141,141,141)" />
	<circle cx="301" cy="304" r="1" fill="rgb(22,22,22)" />
	<circle cx="234" cy="582" r="1" fill="rgb(145,145,145)" />
	<circle cx="353" cy="369" r="1" fill="rgb(113,113,113)" />
	<circle cx="770" cy="255" r="1" fill="rgb(131,131,131)" />
	<circle cx="397" cy="246" r="1" fill="rgb(111,111,111)" />
	<circle cx="246" cy="357" r="1" fill="rgb(56,56,56)" />
	<circle cx="305" cy="185" r="1" fill="rgb(121,121,121)" />
	<circle cx="239" cy="124" r="1" fill="rgb(134,134,134)" />
	<circle cx="749" cy="305" r="1" fill="rgb(149,149,149)" />
	<circle cx="289" cy="351" r="1" fill="rgb(52,52,52)" />
	<circle cx="616" cy="438" r="1" fill="rgb(155,155,155)" />
	<circle cx="286" cy="326" r="1" fill="rgb(43,43,43)" />
	<circle cx="113" cy="562" r="1" fill="rgb(142,142,142)" />
	<circle cx="14" cy="460" r="1" fill="rgb(131,131,131)" />
	<circle cx="783" cy="434" r="1" fill="rgb(138,138,138)" />
	<circle cx="102" cy="468" r="1" fill="rgb(136,136,136)" />
	<circle cx="206" cy="432" r="1" fill="rgb(145,145,145)" />
	<circle cx="704" cy="78" r="1" fill="rgb(148,148,148)" />
	<circle cx="514" cy="516" r="1" fill="rgb(154,154,154)" />
	<circle cx="350" cy="188" r="1" fill="rgb(80,80,80)" />
	<circle cx="620" cy="379" r="1" fill="rgb(150,150,150)" />
	<circle cx="637" cy="45" r="1" fill="rgb(143,143,143)" />
	<circle cx="321" cy="534" r="1" fill="rgb(151,151,151)" />
	<circle cx="670" cy="271" r="1" fill="rgb(149,149,149)" />
	<circle cx="402" cy="455" r="1" fill="rgb(154,154,154)" />
	<circle cx="512" cy="391" r="1" fill="rgb(98,98,98)" />
	<circle cx="139" cy="543" r="1" fill="rgb(138,138,138)" />
	<circle cx="410" cy="347" r="1" fill="rgb(123,123,123)" />
	<circle cx="43" cy="88" r="1" fill="rgb(151,151,151)" />
	<circle cx="144" cy="77" r="1" fill="rgb(153,153,153)" />
	<circle cx="781" cy="36" r="1" fill="rgb(138,138,138)" />
	<circle cx="74" cy="428" r="1" fill="rgb(142,142,142)" />
	<circle cx="678" cy="558" r="1" fill="rgb(139,139,139)" />
	<circle cx="556" cy="427" r="1" fill="rgb(150,150,150)" />
	<circle cx="200" cy="363" r="1" fill="rgb(77,77,77)" />
	<circle cx="754" cy="412" r="1" fill="rgb(143,143,143)" />
	<circle cx="297" cy="29" r="1" fill="rgb(139,139,139)" />
	<circle cx="212" cy="92" r="1" fill="rgb(147,147,147)" />
	<circle cx="245" cy="197" r="1" fill="rgb(137,137,137)" />
	<circle cx="259" cy="536" r="1" fill="rgb(157,157,157)" />
	<circle cx="176" cy="350" r="1" fill="rgb(87,87,87)" />
	<circle cx="528" cy="42" r="1" fill="rgb(144,144,144)" />
	<circle cx="727" cy="493" r="1" fill="rgb(145,145,145)" />
	<circle cx="506" cy="127" r="1" fill="rgb(137,137,137)" />
	<circle cx="52" cy="122" r="1" fill="rgb(150,150,150)" />
	<circle cx="407" cy="546" r="1" fill="rgb(148,148,148)" />
	<circle cx="338" cy="494" r="1" fill="rgb(151,151,151)" />
	<circle cx="309" cy="508" r="1" fill="rgb(154,154,154)" />
	<circle cx="240" cy="278" r="1" fill="rgb(50,50,50)" />
	<circle cx="28" cy="538" r="1" fill="rgb(126,126,126)" />
	<circle cx="711" cy="585" r="1" fill="rgb(143,143,143)" />
	<circle cx="658" cy="500" r="1" fill="rgb(146,146,146)" />
	<circle cx="43" cy="475" r="1" fill="rgb(134,134,134)" />
	<circle cx="231" cy="162" r="1" fill="rgb(154,154,154)" />
	<circle cx="234" cy="554" r="1" fill="rgb(151,151,151)" />
	<circle cx="267" cy="563" r="1" fill="rgb(145,145,145)" />
	<circle cx="325" cy="93" r="1" fill="rgb(134,134,134)" />
	<circle cx="478" cy="296" r="1" fill="rgb(203,203,203)" />
	<circle cx="109" cy="323" r="1" fill="rgb(94,94,94)" />
	<circle cx="536" cy="282" r="1" fill="rgb(143,143,143)" />
	<circle cx="335" cy="456" r="1" fill="rgb(146,146,146)" />
	<circle cx="208" cy="567" r="1" fill="rgb(144,144,144)" />
	<circle cx="400" cy="486" r="1" fill="rgb(149,149,149)" />
	<circle cx="180" cy="408" r="1" fill="rgb(137,137,137)" />
	<circle cx="715" cy="383" r="1" fill="rgb(142,142,142)" />
	<circle cx="199" cy="511" r="1" fill="rgb(153,153,153)" />
	<circle cx="232" cy="464" r="1" fill="rgb(146,146,146)" />
	<circle cx="189" cy="266" r="1" fill="rgb(101,101,101)" />
	<circle cx="565" cy="32" r="1" fill="rgb(139,139,139)" />
	<circle cx="363" cy="161" r="1" fill="rgb(159,159,159)" />
	<circle cx="683" cy="304" r="1" fill="rgb(152,152,152)" />
	<circle cx="283" cy="278" r="1" fill="rgb(26,26,26)" />
	<circle cx="227" cy="525" r="1" fill="rgb(142,142,142)" />
	<circle cx="277" cy="503" r="1" fill="rgb(151,151,151)" />
	<circle cx="67" cy="188" r="1" fill="rgb(137,137,137)" />
	<circle cx="651" cy="586" r="1" fill="rgb(138,138,138)" />
	<circle cx="46" cy="321" r="1" fill="rgb(130,130,130)" />
	<circle cx="757" cy="556" r="1" fill="rgb(135,135,135)" />
	<circle cx="510" cy="14" r="1" fill="rgb(148,148,148)" />
	<circle cx="144" cy="407" r="1" fill="rgb(138,138,138)" />
	<circle cx="517" cy="367" r="1" fill="rgb(94,94,94)" />
	<circle cx="717" cy="347" r="1" fill="rgb(142,142,142)" />
	<circle cx="16" cy="559" r="1" fill="rgb(130,130,130)" />
	<circle cx="219" cy="18" r="1" fill="rgb(147,147,147)" />
	<circle cx="550" cy="500" r="1" fill="rgb(150,150,150)" />
	<circle cx="473" cy="15" r="1" fill="rgb(150,150,150)" />
	<circle cx="583" cy="11" r="1" fill="rgb(132,132,132)" />
	<circle cx="680" cy="586" r="1" fill="rgb(141,141,141)" />
	<circle cx="351" cy="524" r="1" fill="rgb(146,146,146)" />
	<circle cx="327" cy="359" r="1" fill="rgb(59,59,59)" />
	<circle cx="14" cy="310" r="1" fill="rgb(149,149,149)" />
	<circle cx="328" cy="154" r="1" fill="rgb(120,120,120)" />
	<circle cx="617" cy="587" r="1" fill="rgb(147,147,147)" />
	<circle cx="303" cy="433" r="1" fill="rgb(133,133,133)" />
	<circle cx="268" cy="472" r="1" fill="rgb(147,147,147)" />
	<circle cx="288" cy="535" r="1" fill="rgb(137,137,137)" />
	<circle cx="434" cy="79" r="1" fill="rgb(140,140,140)" />
	<circle cx="150" cy="563" r="1" fill="rgb(141,141,141)" />
	<circle cx="655" cy="238" r="1" fill="rgb(141,141,141)" />
	<circle cx="331" cy="383" r="1" fill="rgb(89,89,89)" />
	<circle cx="341" cy="302" r="1" fill="rgb(118,118,118)" />
	<circle cx="427" cy="127" r="1" fill="rgb(143,143,143)" />
	<circle cx="742" cy="245" r="1" fill="rgb(124,124,124)" />
	<circle cx="524" cy="189" r="1" fill="rgb(138,138,138)" />
	<circle cx="470" cy="62" r="1" fill="rgb(148,148,148)" />
	<circle cx="266" cy="344" r="1" fill="rgb(60,60,60)" />
	<circle cx="269" cy="124" r="1" fill="rgb(133,133,133)" />
	<circle cx="19" cy="372" r="1" fill="rgb(140,140,140)" />
	<circle cx="505" cy="72" r="1" fill="rgb(150,150,150)" />
	<circle cx="571" cy="587" r="1" fill="rgb(150,150,150)" />
	<circle cx="445" cy="533" r="1" fill="rgb(141,141,141)" />
	<circle cx="88" cy="36" r="1" fill="rgb(146,146,146)" />
	<circle cx="388" cy="36" r="1" fill="rgb(147,147,147)" />
	<circle cx="551" cy="65" r="1" fill="rgb(145,145,145)" />
	<circle cx="303" cy="561" r="1" fill="rgb(147,147,147)" />
	<circle cx="543" cy="388" r="1" fill="rgb(133,133,133)" />
	<circle cx="226" cy="383" r="1" fill="rgb(55,55,55)" />
	<circle cx="308" cy="324" r="1" fill="rgb(41,41,41)" />
	<circle cx="170" cy="193" r="1" fill="rgb(144,144,144)" />
	<circle cx="414" cy="368" r="1" fill="rgb(55,55,55)" />
	<circle cx="275" cy="443" r="1" fill="rgb(136,136,136)" />
	<circle cx="656" cy="428" r="1" fill="rgb(149,149,149)" />
	<circle cx="45" cy="446" r="1" fill="rgb(132,132,132)" />
	<circle cx="430" cy="476" r="1" fill="rgb(147,147,147)" />
	<circle cx="107" cy="534" r="1" fill="rgb(143,143,143)" />
	<circle cx="462" cy="184" r="1" fill="rgb(118,118,118)" />
	<circle cx="485" cy="480" r="1" fill="rgb(155,155,155)" />
	<circle cx="452" cy="155" r="1" fill="rgb(142,142,142)" />
	<circle cx="192" cy="316" r="1" fill="rgb(89,89,89)" />
	<circle cx="174" cy="134" r="1" fill="rgb(142,142,142)" />
	<circle cx="268" cy="395" r="1" fill="rgb(59,59,59)" />
	<circle cx="783" cy="11" r="1" fill="rgb(132,132,132)" />
	<circle cx="180" cy="70" r="1" fill="rgb(149,149,149)" />
	<circle cx="154" cy="157" r="1" fill="rgb(142,142,142)" />
	<circle cx="427" cy="588" r="1" fill="rgb(135,135,135)" />
	<circle cx="620" cy="504" r="1" fill="rgb(137,137,137)" />
	<circle cx="14" cy="107" r="1" fill="rgb(148,148,148)" />
	<circle cx="644" cy="85" r="1" fill="rgb(140,140,140)" />
	<circle cx="170" cy="532" r="1" fill="rgb(149,149,149)" />
	<circle cx="52" cy="541" r="1" fill="rgb(136,136,136)" />
	<circle cx="577" cy="128" r="1" fill="rgb(148,148,148)" />
	<circle cx="460" cy="355" r="1" fill="rgb(128,128,128)" />
	<circle cx="762" cy="498" r="1" fill="rgb(141,141,141)" />
	<circle cx="669" cy="67" r="1" fill="rgb(144,144,144)" />
	<circle cx="306" cy="283" r="1" fill="rgb(18,18,18)" />
	<circle cx="406" cy="424" r="1" fill="rgb(148,148,148)" />
	<circle cx="550" cy="326" r="1" fill="rgb(140,140,140)" />
	<circle cx="496" cy="373" r="1" fill="rgb(94,94,94)" />
	<circle cx="429" cy="187" r="1" fill="rgb(138,138,138)" />
	<circle cx="652" cy="385" r="1" fill="rgb(142,142,142)" />
	<circle cx="681" cy="368" r="1" fill="rgb(144,144,144)" />
	<circle cx="277" cy="55" r="1" fill="rgb(117,117,117)" />
	<circle cx="635" cy="560" r="1" fill="rgb(148,148,148)" />
	<circle cx="512" cy="278" r="1" fill="rgb(136,136,136)" />
	<circle cx="694" cy="186" r="1" fill="rgb(145,145,145)" />
	<circle cx="165" cy="329" r="1" fill="rgb(81,81,81)" />
	<circle cx="42" cy="49" r="1" fill="rgb(145,145,145)" />
	<circle cx="268" cy="163" r="1" fill="rgb(150,150,150)" />
	<circle cx="682" cy="218" r="1" fill="rgb(140,140,140)" />
	<circle cx="148" cy="113" r="1" fill="rgb(142,142,142)" />
	<circle cx="354" cy="234" r="1" fill="rgb(68,68,68)" />
	<circle cx="153" cy="371" r="1" fill="rgb(111,111,111)" />
	<circle cx="412" cy="56" r="1" fill="rgb(147,147,147)" />
	<circle cx="415" cy="512" r="1" fill="rgb(154,154,154)" />
	<circle cx="291" cy="104" r="1" fill="rgb(132,132,132)" />
	<circle cx="783" cy="334" r="1" fill="rgb(148,148,148)" />
	<circle cx="787" cy="554" r="1" fill="rgb(133,133,133)" />
	<circle cx="786" cy="237" r="1" fill="rgb(134,134,134)" />
	<circle cx="641" cy="213" r="1" fill="rgb(143,143,143)" />
	<circle cx="93" cy="357" r="1" fill="rgb(139,139,139)" />
	<circle cx="611" cy="198" r="1" fill="rgb(146,146,146)" />
	<circle cx="12" cy="521" r="1" fill="rgb(129,129,129)" />
	<circle cx="727" cy="182" r="1" fill="rgb(147,147,147)" />
	<circle cx="291" cy="379" r="1" fill="rgb(60,60,60)" />
	<circle cx="124" cy="587" r="1" fill="rgb(140,140,140)" />
	<circle cx="615" cy="233" r="1" fill="rgb(148,148,148)" />
	<circle cx="303" cy="78" r="1" fill="rgb(102,102,102)" />
	<circle cx="276" cy="201" r="1" fill="rgb(116,116,116)" />
	<circle cx="575" cy="94" r="1" fill="rgb(149,149,149)" />
	<circle cx="300" cy="238" r="1" fill="rgb(24,24,24)" />
	<circle cx="617" cy="107" r="1" fill="rgb(144,144,144)" />
	<circle cx="701" cy="277" r="1" fill="rgb(146,146,146)" />
	<circle cx="372" cy="64" r="1" fill="rgb(134,134,134)" />
	<circle cx="433" cy="441" r="1" fill="rgb(153,153,153)" />
	<circle cx="117" cy="386" r="1" fill="rgb(142,142,142)" />
	<circle cx="112" cy="258" r="1" fill="rgb(118,118,118)" />
	<circle cx="15" cy="140" r="1" fill="rgb(150,150,150)" />
	<circle cx="681" cy="528" r="1" fill="rgb(140,140,140)" />
	<circle cx="254" cy="298" r="1" fill="rgb(47,47,47)" />
	<circle cx="319" cy="9" r="1" fill="rgb(138,138,138)" />
	<circle cx="356" cy="398" r="1" fill="rgb(135,135,135)" />
	<circle cx="441" cy="106" r="1" fill="rgb(130,130,130)" />
	<circle cx="356" cy="39" r="1" fill="rgb(100,100,100)" />
	<circle cx="125" cy="227" r="1" fill="rgb(146,146,146)" />
	<circle cx="508" cy="249" r="1" fill="rgb(144,144,144)" />
	<circle cx="576" cy="477" r="1" fill="rgb(145,145,145)" />
	<circle cx="433" cy="368" r="1" fill="rgb(40,40,40)" />
	<circle cx="74" cy="490" r="1" fill="rgb(145,145,145)" />
	<circle cx="585" cy="245" r="1" fill="rgb(143,143,143)" />
	<circle cx="436" cy="340" r="1" fill="rgb(169,169,169)" />
	<circle cx="79" cy="522" r="1" fill="rgb(140,140,140)" />
	<circle cx="779" cy="129" r="1" fill="rgb(145,145,145)" />
	<circle cx="86" cy="125" r="1" fill="rgb(155,155,155)" />
	<circle cx="395" cy="194" r="1" fill="rgb(141,141,141)" />
	<circle cx="343" cy="260" r="1" fill="rgb(49,49,49)" />
	<circle cx="373" cy="239" r="1" fill="rgb(93,93,93)" />
	<circle cx="346" cy="341" r="1" fill="rgb(108,108,108)" />
	<circle cx="777" cy="63" r="1" fill="rgb(134,134,134)" />
	<circle cx="53" cy="568" r="1" fill="rgb(134,134,134)" />
	<circle cx="166" cy="44" r="1" fill="rgb(149,149,149)" />
	<circle cx="337" cy="59" r="1" fill="rgb(128,128,128)" />
	<circle cx="534" cy="252" r="1" fill="rgb(144,144,144)" />
	<circle cx="308" cy="369" r="1" fill="rgb(46,46,46)" />
	<circle cx="123" cy="134" r="1" fill="rgb(151,151,151)" />
	<circle cx="319" cy="245" r="1" fill="rgb(28,28,28)" />
	<circle cx="210" cy="590" r="1" fill="rgb(142,142,142)" />
	<circle cx="475" cy="372" r="1" fill="rgb(93,93,93)" />
	<circle cx="124" cy="166" r="1" fill="rgb(144,144,144)" />
	<circle cx="364" cy="102" r="1" fill="rgb(161,161,161)" />
	<circle cx="432" cy="15" r="1" fill="rgb(146,146,146)" />
	<circle cx="56" cy="366" r="1" fill="rgb(135,135,135)" />
	<circle cx="177" cy="380" r="1" fill="rgb(83,83,83)" />
	<circle cx="488" cy="234" r="1" fill="rgb(134,134,134)" />
	<circle cx="280" cy="300" r="1" fill="rgb(27,27,27)" />
	<circle cx="99" cy="195" r="1" fill="rgb(140,140,140)" />
	<circle cx="324" cy="263" r="1" fill="rgb(24,24,24)" />
	<circle cx="80" cy="93" r="1" fill="rgb(146,146,146)" />
	<circle cx="493" cy="347" r="1" fill="rgb(138,138,138)" />
	<circle cx="558" cy="239" r="1" fill="rgb(150,150,150)" />
	<circle cx="76" cy="328" r="1" fill="rgb(123,123,123)" />
	<circle cx="544" cy="358" r="1" fill="rgb(129,129,129)" />
	<circle cx="221" cy="406" r="1" fill="rgb(92,92,92)" />
	<circle cx="80" cy="555" r="1" fill="rgb(136,136,136)" />
	<circle cx="257" cy="589" r="1" fill="rgb(150,150,150)" />
	<circle cx="708" cy="461" r="1" fill="rgb(145,145,145)" />
	<circle cx="581" cy="194" r="1" fill="rgb(148,148,148)" />
	<circle cx="782" cy="304" r="1" fill="rgb(143,143,143)" />
	<circle cx="495" cy="417" r="1" fill="rgb(142,142,142)" />
	<circle cx="336" cy="586" r="1" fill="rgb(146,146,146)" />
	<circle cx="90" cy="227" r="1" fill="rgb(139,139,139)" />
	<circle cx="159" cy="471" r="1" fill="rgb(137,137,137)" />
	<circle cx="262" cy="273" r="1" fill="rgb(34,34,34)" />
	<circle cx="144" cy="289" r="1" fill="rgb(53,53,53)" />
	<circle cx="306" cy="54" r="1" fill="rgb(101,101,101)" />
	<circle cx="251" cy="20" r="1" fill="rgb(148,148,148)" />
	<circle cx="714" cy="246" r="1" fill="rgb(145,145,145)" />
	<circle cx="575" cy="380" r="1" fill="rgb(146,146,146)" />
	<circle cx="637" cy="454" r="1" fill="rgb(145,145,145)" />
	<circle cx="600" cy="365" r="1" fill="rgb(146,146,146)" />
	<circle cx="366" cy="209" r="1" fill="rgb(86,86,86)" />
	<circle cx="646" cy="531" r="1" fill="rgb(145,145,145)" />
	<circle cx="467" cy="385" r="1" fill="rgb(43,43,43)" />
	<circle cx="248" cy="380" r="1" fill="rgb(47,47,47)" />
	<circle cx="516" cy="482" r="1" fill="rgb(146,146,146)" />
	<circle cx="620" cy="139" r="1" fill="rgb(148,148,148)" />
	<circle cx="414" cy="159" r="1" fill="rgb(152,152,152)" />
	<circle cx="523" cy="340" r="1" fill="rgb(123,123,123)" />
	<circle cx="783" cy="472" r="1" fill="rgb(139,139,139)" />
</svg>
